<?xml version="1.0" encoding="utf-8" standalone="no"?>
<!DOCTYPE svg PUBLIC "-//W3C//DTD SVG 1.1//EN"
  "http://www.w3.org/Graphics/SVG/1.1/DTD/svg11.dtd">
<svg xmlns:xlink="http://www.w3.org/1999/xlink" width="712.543125pt" height="424.498125pt" viewBox="0 0 712.543125 424.498125" xmlns="http://www.w3.org/2000/svg" version="1.1">
 <metadata>
  <rdf:RDF xmlns:dc="http://purl.org/dc/elements/1.1/" xmlns:cc="http://creativecommons.org/ns#" xmlns:rdf="http://www.w3.org/1999/02/22-rdf-syntax-ns#">
   <cc:Work>
    <dc:type rdf:resource="http://purl.org/dc/dcmitype/StillImage"/>
    <dc:date>2026-07-15T12:25:38.341128</dc:date>
    <dc:format>image/svg+xml</dc:format>
    <dc:creator>
     <cc:Agent>
      <dc:title>Matplotlib v3.10.7, https://matplotlib.org/</dc:title>
     </cc:Agent>
    </dc:creator>
   </cc:Work>
  </rdf:RDF>
 </metadata>
 <defs>
  <style type="text/css">*{stroke-linejoin: round; stroke-linecap: butt}</style>
 </defs>
 <g id="figure_1">
  <g id="patch_1">
   <path d="M 0 424.498125 
L 712.543125 424.498125 
L 712.543125 0 
L 0 0 
z
" style="fill: #ffffff"/>
  </g>
  <g id="axes_1">
   <g id="patch_2">
    <path d="M 56.983125 383.331562 
L 705.343125 383.331562 
L 705.343125 32.391562 
L 56.983125 32.391562 
z
" style="fill: #ffffff"/>
   </g>
   <g id="matplotlib.axis_1">
    <g id="xtick_1">
     <g id="line2d_1">
      <path d="M 86.454034 383.331562 
L 86.454034 32.391562 
" clip-path="url(#pde366b08d9)" style="fill: none; stroke-dasharray: 0.8,1.32; stroke-dashoffset: 0; stroke: #cccccc; stroke-opacity: 0.6; stroke-width: 0.8"/>
     </g>
     <g id="line2d_2"/>
     <g id="text_1">
      <!-- 1.000 -->
      <g style="fill: #262626" transform="translate(73.943097 393.989375) scale(0.1 -0.1)">
       <defs>
        <path id="ArialMT-31" d="M 2384 0 
L 1822 0 
L 1822 3584 
Q 1619 3391 1289 3197 
Q 959 3003 697 2906 
L 697 3450 
Q 1169 3672 1522 3987 
Q 1875 4303 2022 4600 
L 2384 4600 
L 2384 0 
z
" transform="scale(0.015625)"/>
        <path id="ArialMT-2e" d="M 581 0 
L 581 641 
L 1222 641 
L 1222 0 
L 581 0 
z
" transform="scale(0.015625)"/>
        <path id="ArialMT-30" d="M 266 2259 
Q 266 3072 433 3567 
Q 600 4063 929 4331 
Q 1259 4600 1759 4600 
Q 2128 4600 2406 4451 
Q 2684 4303 2865 4023 
Q 3047 3744 3150 3342 
Q 3253 2941 3253 2259 
Q 3253 1453 3087 958 
Q 2922 463 2592 192 
Q 2263 -78 1759 -78 
Q 1097 -78 719 397 
Q 266 969 266 2259 
z
M 844 2259 
Q 844 1131 1108 757 
Q 1372 384 1759 384 
Q 2147 384 2411 759 
Q 2675 1134 2675 2259 
Q 2675 3391 2411 3762 
Q 2147 4134 1753 4134 
Q 1366 4134 1134 3806 
Q 844 3388 844 2259 
z
" transform="scale(0.015625)"/>
       </defs>
       <use xlink:href="#ArialMT-31"/>
       <use xlink:href="#ArialMT-2e" transform="translate(55.615234 0)"/>
       <use xlink:href="#ArialMT-30" transform="translate(83.398438 0)"/>
       <use xlink:href="#ArialMT-30" transform="translate(139.013672 0)"/>
       <use xlink:href="#ArialMT-30" transform="translate(194.628906 0)"/>
      </g>
     </g>
    </g>
    <g id="xtick_2">
     <g id="line2d_3">
      <path d="M 233.80858 383.331562 
L 233.80858 32.391562 
" clip-path="url(#pde366b08d9)" style="fill: none; stroke-dasharray: 0.8,1.32; stroke-dashoffset: 0; stroke: #cccccc; stroke-opacity: 0.6; stroke-width: 0.8"/>
     </g>
     <g id="line2d_4"/>
     <g id="text_2">
      <!-- 10.000 -->
      <g style="fill: #262626" transform="translate(218.517173 393.989375) scale(0.1 -0.1)">
       <use xlink:href="#ArialMT-31"/>
       <use xlink:href="#ArialMT-30" transform="translate(55.615234 0)"/>
       <use xlink:href="#ArialMT-2e" transform="translate(111.230469 0)"/>
       <use xlink:href="#ArialMT-30" transform="translate(139.013672 0)"/>
       <use xlink:href="#ArialMT-30" transform="translate(194.628906 0)"/>
       <use xlink:href="#ArialMT-30" transform="translate(250.244141 0)"/>
      </g>
     </g>
    </g>
    <g id="xtick_3">
     <g id="line2d_5">
      <path d="M 381.163125 383.331562 
L 381.163125 32.391562 
" clip-path="url(#pde366b08d9)" style="fill: none; stroke-dasharray: 0.8,1.32; stroke-dashoffset: 0; stroke: #cccccc; stroke-opacity: 0.6; stroke-width: 0.8"/>
     </g>
     <g id="line2d_6"/>
     <g id="text_3">
      <!-- 50.000 -->
      <g style="fill: #262626" transform="translate(365.871719 393.989375) scale(0.1 -0.1)">
       <defs>
        <path id="ArialMT-35" d="M 266 1200 
L 856 1250 
Q 922 819 1161 601 
Q 1400 384 1738 384 
Q 2144 384 2425 690 
Q 2706 997 2706 1503 
Q 2706 1984 2436 2262 
Q 2166 2541 1728 2541 
Q 1456 2541 1237 2417 
Q 1019 2294 894 2097 
L 366 2166 
L 809 4519 
L 3088 4519 
L 3088 3981 
L 1259 3981 
L 1013 2750 
Q 1425 3038 1878 3038 
Q 2478 3038 2890 2622 
Q 3303 2206 3303 1553 
Q 3303 931 2941 478 
Q 2500 -78 1738 -78 
Q 1113 -78 717 272 
Q 322 622 266 1200 
z
" transform="scale(0.015625)"/>
       </defs>
       <use xlink:href="#ArialMT-35"/>
       <use xlink:href="#ArialMT-30" transform="translate(55.615234 0)"/>
       <use xlink:href="#ArialMT-2e" transform="translate(111.230469 0)"/>
       <use xlink:href="#ArialMT-30" transform="translate(139.013672 0)"/>
       <use xlink:href="#ArialMT-30" transform="translate(194.628906 0)"/>
       <use xlink:href="#ArialMT-30" transform="translate(250.244141 0)"/>
      </g>
     </g>
    </g>
    <g id="xtick_4">
     <g id="line2d_7">
      <path d="M 528.51767 383.331562 
L 528.51767 32.391562 
" clip-path="url(#pde366b08d9)" style="fill: none; stroke-dasharray: 0.8,1.32; stroke-dashoffset: 0; stroke: #cccccc; stroke-opacity: 0.6; stroke-width: 0.8"/>
     </g>
     <g id="line2d_8"/>
     <g id="text_4">
      <!-- 100.000 -->
      <g style="fill: #262626" transform="translate(510.445795 393.989375) scale(0.1 -0.1)">
       <use xlink:href="#ArialMT-31"/>
       <use xlink:href="#ArialMT-30" transform="translate(55.615234 0)"/>
       <use xlink:href="#ArialMT-30" transform="translate(111.230469 0)"/>
       <use xlink:href="#ArialMT-2e" transform="translate(166.845703 0)"/>
       <use xlink:href="#ArialMT-30" transform="translate(194.628906 0)"/>
       <use xlink:href="#ArialMT-30" transform="translate(250.244141 0)"/>
       <use xlink:href="#ArialMT-30" transform="translate(305.859375 0)"/>
      </g>
     </g>
    </g>
    <g id="xtick_5">
     <g id="line2d_9">
      <path d="M 675.872216 383.331562 
L 675.872216 32.391562 
" clip-path="url(#pde366b08d9)" style="fill: none; stroke-dasharray: 0.8,1.32; stroke-dashoffset: 0; stroke: #cccccc; stroke-opacity: 0.6; stroke-width: 0.8"/>
     </g>
     <g id="line2d_10"/>
     <g id="text_5">
      <!-- 150.000 -->
      <g style="fill: #262626" transform="translate(657.800341 393.989375) scale(0.1 -0.1)">
       <use xlink:href="#ArialMT-31"/>
       <use xlink:href="#ArialMT-35" transform="translate(55.615234 0)"/>
       <use xlink:href="#ArialMT-30" transform="translate(111.230469 0)"/>
       <use xlink:href="#ArialMT-2e" transform="translate(166.845703 0)"/>
       <use xlink:href="#ArialMT-30" transform="translate(194.628906 0)"/>
       <use xlink:href="#ArialMT-30" transform="translate(250.244141 0)"/>
       <use xlink:href="#ArialMT-30" transform="translate(305.859375 0)"/>
      </g>
     </g>
    </g>
    <g id="text_6">
     <!-- Величина датотеке (број линија кода) -->
     <g style="fill: #262626" transform="translate(276.39375 414.7725) scale(0.12 -0.12)">
      <defs>
       <path id="ArialMT-412" d="M 469 0 
L 469 4581 
L 2188 4581 
Q 2713 4581 3030 4442 
Q 3347 4303 3526 4014 
Q 3706 3725 3706 3409 
Q 3706 3116 3547 2856 
Q 3388 2597 3066 2438 
Q 3481 2316 3704 2022 
Q 3928 1728 3928 1328 
Q 3928 1006 3792 729 
Q 3656 453 3456 303 
Q 3256 153 2954 76 
Q 2653 0 2216 0 
L 469 0 
z
M 1075 2656 
L 2066 2656 
Q 2469 2656 2644 2709 
Q 2875 2778 2992 2937 
Q 3109 3097 3109 3338 
Q 3109 3566 3000 3739 
Q 2891 3913 2687 3977 
Q 2484 4041 1991 4041 
L 1075 4041 
L 1075 2656 
z
M 1075 541 
L 2216 541 
Q 2509 541 2628 563 
Q 2838 600 2978 687 
Q 3119 775 3209 942 
Q 3300 1109 3300 1328 
Q 3300 1584 3169 1773 
Q 3038 1963 2805 2039 
Q 2572 2116 2134 2116 
L 1075 2116 
L 1075 541 
z
" transform="scale(0.015625)"/>
       <path id="ArialMT-435" d="M 2694 1069 
L 3275 997 
Q 3138 488 2766 206 
Q 2394 -75 1816 -75 
Q 1088 -75 661 373 
Q 234 822 234 1631 
Q 234 2469 665 2931 
Q 1097 3394 1784 3394 
Q 2450 3394 2872 2941 
Q 3294 2488 3294 1666 
Q 3294 1616 3291 1516 
L 816 1516 
Q 847 969 1125 678 
Q 1403 388 1819 388 
Q 2128 388 2347 550 
Q 2566 713 2694 1069 
z
M 847 1978 
L 2700 1978 
Q 2663 2397 2488 2606 
Q 2219 2931 1791 2931 
Q 1403 2931 1139 2672 
Q 875 2413 847 1978 
z
" transform="scale(0.015625)"/>
       <path id="ArialMT-43b" d="M 697 3319 
L 3309 3319 
L 3309 0 
L 2750 0 
L 2750 2853 
L 1259 2853 
L 1259 1200 
Q 1259 622 1221 437 
Q 1184 253 1015 115 
Q 847 -22 528 -22 
Q 331 -22 75 3 
L 75 472 
L 322 472 
Q 497 472 572 508 
Q 647 544 672 622 
Q 697 700 697 1131 
L 697 3319 
z
" transform="scale(0.015625)"/>
       <path id="ArialMT-438" d="M 422 3319 
L 984 3319 
L 984 788 
L 2544 3319 
L 3150 3319 
L 3150 0 
L 2588 0 
L 2588 2516 
L 1028 0 
L 422 0 
L 422 3319 
z
" transform="scale(0.015625)"/>
       <path id="ArialMT-447" d="M 216 3319 
L 778 3319 
L 778 2691 
Q 778 2284 826 2101 
Q 875 1919 1059 1783 
Q 1244 1647 1522 1647 
Q 1841 1647 2347 1816 
L 2347 3319 
L 2909 3319 
L 2909 0 
L 2347 0 
L 2347 1338 
Q 1828 1175 1378 1175 
Q 1000 1175 711 1367 
Q 422 1559 319 1837 
Q 216 2116 216 2450 
L 216 3319 
z
" transform="scale(0.015625)"/>
       <path id="ArialMT-43d" d="M 425 3319 
L 988 3319 
L 988 1938 
L 2547 1938 
L 2547 3319 
L 3109 3319 
L 3109 0 
L 2547 0 
L 2547 1472 
L 988 1472 
L 988 0 
L 425 0 
L 425 3319 
z
" transform="scale(0.015625)"/>
       <path id="ArialMT-430" d="M 2588 409 
Q 2275 144 1986 34 
Q 1697 -75 1366 -75 
Q 819 -75 525 192 
Q 231 459 231 875 
Q 231 1119 342 1320 
Q 453 1522 633 1644 
Q 813 1766 1038 1828 
Q 1203 1872 1538 1913 
Q 2219 1994 2541 2106 
Q 2544 2222 2544 2253 
Q 2544 2597 2384 2738 
Q 2169 2928 1744 2928 
Q 1347 2928 1158 2789 
Q 969 2650 878 2297 
L 328 2372 
Q 403 2725 575 2942 
Q 747 3159 1072 3276 
Q 1397 3394 1825 3394 
Q 2250 3394 2515 3294 
Q 2781 3194 2906 3042 
Q 3031 2891 3081 2659 
Q 3109 2516 3109 2141 
L 3109 1391 
Q 3109 606 3145 398 
Q 3181 191 3288 0 
L 2700 0 
Q 2613 175 2588 409 
z
M 2541 1666 
Q 2234 1541 1622 1453 
Q 1275 1403 1131 1340 
Q 988 1278 909 1158 
Q 831 1038 831 891 
Q 831 666 1001 516 
Q 1172 366 1500 366 
Q 1825 366 2078 508 
Q 2331 650 2450 897 
Q 2541 1088 2541 1459 
L 2541 1666 
z
" transform="scale(0.015625)"/>
       <path id="ArialMT-20" transform="scale(0.015625)"/>
       <path id="ArialMT-434" d="M 866 3319 
L 3178 3319 
L 3178 463 
L 3538 463 
L 3538 -941 
L 3075 -941 
L 3075 0 
L 463 0 
L 463 -941 
L 0 -941 
L 0 463 
L 297 463 
Q 891 1269 866 3319 
z
M 1334 2853 
Q 1272 1238 834 463 
L 2619 463 
L 2619 2853 
L 1334 2853 
z
" transform="scale(0.015625)"/>
       <path id="ArialMT-442" d="M 119 3319 
L 2816 3319 
L 2816 2853 
L 1747 2853 
L 1747 0 
L 1188 0 
L 1188 2853 
L 119 2853 
L 119 3319 
z
" transform="scale(0.015625)"/>
       <path id="ArialMT-43e" d="M 213 1659 
Q 213 2581 725 3025 
Q 1153 3394 1769 3394 
Q 2453 3394 2887 2945 
Q 3322 2497 3322 1706 
Q 3322 1066 3130 698 
Q 2938 331 2570 128 
Q 2203 -75 1769 -75 
Q 1072 -75 642 372 
Q 213 819 213 1659 
z
M 791 1659 
Q 791 1022 1069 705 
Q 1347 388 1769 388 
Q 2188 388 2466 706 
Q 2744 1025 2744 1678 
Q 2744 2294 2464 2611 
Q 2184 2928 1769 2928 
Q 1347 2928 1069 2612 
Q 791 2297 791 1659 
z
" transform="scale(0.015625)"/>
       <path id="ArialMT-43a" d="M 419 3319 
L 981 3319 
L 981 1884 
Q 1250 1884 1358 1987 
Q 1466 2091 1675 2588 
Q 1841 2981 1944 3106 
Q 2047 3231 2181 3275 
Q 2316 3319 2613 3319 
L 2725 3319 
L 2725 2853 
L 2569 2856 
Q 2347 2856 2284 2791 
Q 2219 2722 2084 2381 
Q 1956 2056 1850 1931 
Q 1744 1806 1522 1703 
Q 1884 1606 2234 1028 
L 2850 0 
L 2231 0 
L 1631 1028 
Q 1447 1338 1309 1436 
Q 1172 1534 981 1534 
L 981 0 
L 419 0 
L 419 3319 
z
" transform="scale(0.015625)"/>
       <path id="ArialMT-28" d="M 1497 -1347 
Q 1031 -759 709 28 
Q 388 816 388 1659 
Q 388 2403 628 3084 
Q 909 3875 1497 4659 
L 1900 4659 
Q 1522 4009 1400 3731 
Q 1209 3300 1100 2831 
Q 966 2247 966 1656 
Q 966 153 1900 -1347 
L 1497 -1347 
z
" transform="scale(0.015625)"/>
       <path id="ArialMT-431" d="M 2853 4691 
L 3350 4684 
Q 3316 4350 3202 4219 
Q 3088 4088 2908 4050 
Q 2728 4013 2203 4013 
Q 1506 4013 1253 3878 
Q 1000 3744 889 3448 
Q 778 3153 766 2688 
Q 978 3003 1262 3161 
Q 1547 3319 1903 3319 
Q 2556 3319 2984 2870 
Q 3413 2422 3413 1656 
Q 3413 1075 3197 703 
Q 2981 331 2686 128 
Q 2391 -75 1881 -75 
Q 1291 -75 962 195 
Q 634 466 459 887 
Q 284 1309 284 2356 
Q 284 3672 729 4128 
Q 1175 4584 2100 4584 
Q 2675 4584 2753 4603 
Q 2831 4622 2853 4691 
z
M 2825 1672 
Q 2825 2191 2579 2522 
Q 2334 2853 1888 2853 
Q 1422 2853 1169 2503 
Q 916 2153 916 1569 
Q 916 991 1195 684 
Q 1475 378 1884 378 
Q 2303 378 2564 733 
Q 2825 1088 2825 1672 
z
" transform="scale(0.015625)"/>
       <path id="ArialMT-440" d="M 422 -1272 
L 422 3319 
L 934 3319 
L 934 2888 
Q 1116 3141 1344 3267 
Q 1572 3394 1897 3394 
Q 2322 3394 2647 3175 
Q 2972 2956 3137 2557 
Q 3303 2159 3303 1684 
Q 3303 1175 3120 767 
Q 2938 359 2589 142 
Q 2241 -75 1856 -75 
Q 1575 -75 1351 44 
Q 1128 163 984 344 
L 984 -1272 
L 422 -1272 
z
M 931 1641 
Q 931 1000 1190 694 
Q 1450 388 1819 388 
Q 2194 388 2461 705 
Q 2728 1022 2728 1688 
Q 2728 2322 2467 2637 
Q 2206 2953 1844 2953 
Q 1484 2953 1207 2617 
Q 931 2281 931 1641 
z
" transform="scale(0.015625)"/>
       <path id="ArialMT-458" d="M 419 3928 
L 419 4581 
L 981 4581 
L 981 3928 
L 419 3928 
z
M -294 -1288 
L -188 -809 
Q -19 -853 78 -853 
Q 250 -853 334 -739 
Q 419 -625 419 -169 
L 419 3319 
L 981 3319 
L 981 -181 
Q 981 -794 822 -1034 
Q 619 -1347 147 -1347 
Q -81 -1347 -294 -1288 
z
" transform="scale(0.015625)"/>
       <path id="ArialMT-29" d="M 791 -1347 
L 388 -1347 
Q 1322 153 1322 1656 
Q 1322 2244 1188 2822 
Q 1081 3291 891 3722 
Q 769 4003 388 4659 
L 791 4659 
Q 1378 3875 1659 3084 
Q 1900 2403 1900 1659 
Q 1900 816 1576 28 
Q 1253 -759 791 -1347 
z
" transform="scale(0.015625)"/>
      </defs>
      <use xlink:href="#ArialMT-412"/>
      <use xlink:href="#ArialMT-435" transform="translate(66.699219 0)"/>
      <use xlink:href="#ArialMT-43b" transform="translate(118.939453 0)"/>
      <use xlink:href="#ArialMT-438" transform="translate(177.289062 0)"/>
      <use xlink:href="#ArialMT-447" transform="translate(233.148438 0)"/>
      <use xlink:href="#ArialMT-438" transform="translate(285.248047 0)"/>
      <use xlink:href="#ArialMT-43d" transform="translate(341.107422 0)"/>
      <use xlink:href="#ArialMT-430" transform="translate(396.332031 0)"/>
      <use xlink:href="#ArialMT-20" transform="translate(451.947266 0)"/>
      <use xlink:href="#ArialMT-434" transform="translate(479.730469 0)"/>
      <use xlink:href="#ArialMT-430" transform="translate(538.080078 0)"/>
      <use xlink:href="#ArialMT-442" transform="translate(591.445312 0)"/>
      <use xlink:href="#ArialMT-43e" transform="translate(636.121094 0)"/>
      <use xlink:href="#ArialMT-442" transform="translate(689.486328 0)"/>
      <use xlink:href="#ArialMT-435" transform="translate(734.162109 0)"/>
      <use xlink:href="#ArialMT-43a" transform="translate(789.777344 0)"/>
      <use xlink:href="#ArialMT-435" transform="translate(834.652344 0)"/>
      <use xlink:href="#ArialMT-20" transform="translate(890.267578 0)"/>
      <use xlink:href="#ArialMT-28" transform="translate(918.050781 0)"/>
      <use xlink:href="#ArialMT-431" transform="translate(951.351562 0)"/>
      <use xlink:href="#ArialMT-440" transform="translate(1008.626953 0)"/>
      <use xlink:href="#ArialMT-43e" transform="translate(1064.242188 0)"/>
      <use xlink:href="#ArialMT-458" transform="translate(1119.857422 0)"/>
      <use xlink:href="#ArialMT-20" transform="translate(1142.074219 0)"/>
      <use xlink:href="#ArialMT-43b" transform="translate(1169.857422 0)"/>
      <use xlink:href="#ArialMT-438" transform="translate(1228.207031 0)"/>
      <use xlink:href="#ArialMT-43d" transform="translate(1284.066406 0)"/>
      <use xlink:href="#ArialMT-438" transform="translate(1339.291016 0)"/>
      <use xlink:href="#ArialMT-458" transform="translate(1395.150391 0)"/>
      <use xlink:href="#ArialMT-430" transform="translate(1417.367188 0)"/>
      <use xlink:href="#ArialMT-20" transform="translate(1472.982422 0)"/>
      <use xlink:href="#ArialMT-43a" transform="translate(1500.765625 0)"/>
      <use xlink:href="#ArialMT-43e" transform="translate(1545.640625 0)"/>
      <use xlink:href="#ArialMT-434" transform="translate(1599.005859 0)"/>
      <use xlink:href="#ArialMT-430" transform="translate(1657.355469 0)"/>
      <use xlink:href="#ArialMT-29" transform="translate(1712.970703 0)"/>
     </g>
    </g>
   </g>
   <g id="matplotlib.axis_2">
    <g id="ytick_1">
     <g id="line2d_11">
      <path d="M 56.983125 367.379861 
L 705.343125 367.379861 
" clip-path="url(#pde366b08d9)" style="fill: none; stroke-dasharray: 0.8,1.32; stroke-dashoffset: 0; stroke: #cccccc; stroke-opacity: 0.6; stroke-width: 0.8"/>
     </g>
     <g id="line2d_12"/>
     <g id="text_7">
      <!-- 0 -->
      <g style="fill: #262626" transform="translate(47.922188 370.958767) scale(0.1 -0.1)">
       <use xlink:href="#ArialMT-30"/>
      </g>
     </g>
    </g>
    <g id="ytick_2">
     <g id="line2d_13">
      <path d="M 56.983125 306.109171 
L 705.343125 306.109171 
" clip-path="url(#pde366b08d9)" style="fill: none; stroke-dasharray: 0.8,1.32; stroke-dashoffset: 0; stroke: #cccccc; stroke-opacity: 0.6; stroke-width: 0.8"/>
     </g>
     <g id="line2d_14"/>
     <g id="text_8">
      <!-- 500 -->
      <g style="fill: #262626" transform="translate(36.800313 309.688078) scale(0.1 -0.1)">
       <use xlink:href="#ArialMT-35"/>
       <use xlink:href="#ArialMT-30" transform="translate(55.615234 0)"/>
       <use xlink:href="#ArialMT-30" transform="translate(111.230469 0)"/>
      </g>
     </g>
    </g>
    <g id="ytick_3">
     <g id="line2d_15">
      <path d="M 56.983125 244.838482 
L 705.343125 244.838482 
" clip-path="url(#pde366b08d9)" style="fill: none; stroke-dasharray: 0.8,1.32; stroke-dashoffset: 0; stroke: #cccccc; stroke-opacity: 0.6; stroke-width: 0.8"/>
     </g>
     <g id="line2d_16"/>
     <g id="text_9">
      <!-- 1,000 -->
      <g style="fill: #262626" transform="translate(28.46125 248.417388) scale(0.1 -0.1)">
       <defs>
        <path id="ArialMT-2c" d="M 569 0 
L 569 641 
L 1209 641 
L 1209 0 
Q 1209 -353 1084 -570 
Q 959 -788 688 -906 
L 531 -666 
Q 709 -588 793 -436 
Q 878 -284 888 0 
L 569 0 
z
" transform="scale(0.015625)"/>
       </defs>
       <use xlink:href="#ArialMT-31"/>
       <use xlink:href="#ArialMT-2c" transform="translate(55.615234 0)"/>
       <use xlink:href="#ArialMT-30" transform="translate(83.398438 0)"/>
       <use xlink:href="#ArialMT-30" transform="translate(139.013672 0)"/>
       <use xlink:href="#ArialMT-30" transform="translate(194.628906 0)"/>
      </g>
     </g>
    </g>
    <g id="ytick_4">
     <g id="line2d_17">
      <path d="M 56.983125 183.567792 
L 705.343125 183.567792 
" clip-path="url(#pde366b08d9)" style="fill: none; stroke-dasharray: 0.8,1.32; stroke-dashoffset: 0; stroke: #cccccc; stroke-opacity: 0.6; stroke-width: 0.8"/>
     </g>
     <g id="line2d_18"/>
     <g id="text_10">
      <!-- 1,500 -->
      <g style="fill: #262626" transform="translate(28.46125 187.146699) scale(0.1 -0.1)">
       <use xlink:href="#ArialMT-31"/>
       <use xlink:href="#ArialMT-2c" transform="translate(55.615234 0)"/>
       <use xlink:href="#ArialMT-35" transform="translate(83.398438 0)"/>
       <use xlink:href="#ArialMT-30" transform="translate(139.013672 0)"/>
       <use xlink:href="#ArialMT-30" transform="translate(194.628906 0)"/>
      </g>
     </g>
    </g>
    <g id="ytick_5">
     <g id="line2d_19">
      <path d="M 56.983125 122.297103 
L 705.343125 122.297103 
" clip-path="url(#pde366b08d9)" style="fill: none; stroke-dasharray: 0.8,1.32; stroke-dashoffset: 0; stroke: #cccccc; stroke-opacity: 0.6; stroke-width: 0.8"/>
     </g>
     <g id="line2d_20"/>
     <g id="text_11">
      <!-- 2,000 -->
      <g style="fill: #262626" transform="translate(28.46125 125.876009) scale(0.1 -0.1)">
       <defs>
        <path id="ArialMT-32" d="M 3222 541 
L 3222 0 
L 194 0 
Q 188 203 259 391 
Q 375 700 629 1000 
Q 884 1300 1366 1694 
Q 2113 2306 2375 2664 
Q 2638 3022 2638 3341 
Q 2638 3675 2398 3904 
Q 2159 4134 1775 4134 
Q 1369 4134 1125 3890 
Q 881 3647 878 3216 
L 300 3275 
Q 359 3922 746 4261 
Q 1134 4600 1788 4600 
Q 2447 4600 2831 4234 
Q 3216 3869 3216 3328 
Q 3216 3053 3103 2787 
Q 2991 2522 2730 2228 
Q 2469 1934 1863 1422 
Q 1356 997 1212 845 
Q 1069 694 975 541 
L 3222 541 
z
" transform="scale(0.015625)"/>
       </defs>
       <use xlink:href="#ArialMT-32"/>
       <use xlink:href="#ArialMT-2c" transform="translate(55.615234 0)"/>
       <use xlink:href="#ArialMT-30" transform="translate(83.398438 0)"/>
       <use xlink:href="#ArialMT-30" transform="translate(139.013672 0)"/>
       <use xlink:href="#ArialMT-30" transform="translate(194.628906 0)"/>
      </g>
     </g>
    </g>
    <g id="ytick_6">
     <g id="line2d_21">
      <path d="M 56.983125 61.026413 
L 705.343125 61.026413 
" clip-path="url(#pde366b08d9)" style="fill: none; stroke-dasharray: 0.8,1.32; stroke-dashoffset: 0; stroke: #cccccc; stroke-opacity: 0.6; stroke-width: 0.8"/>
     </g>
     <g id="line2d_22"/>
     <g id="text_12">
      <!-- 2,500 -->
      <g style="fill: #262626" transform="translate(28.46125 64.60532) scale(0.1 -0.1)">
       <use xlink:href="#ArialMT-32"/>
       <use xlink:href="#ArialMT-2c" transform="translate(55.615234 0)"/>
       <use xlink:href="#ArialMT-35" transform="translate(83.398438 0)"/>
       <use xlink:href="#ArialMT-30" transform="translate(139.013672 0)"/>
       <use xlink:href="#ArialMT-30" transform="translate(194.628906 0)"/>
      </g>
     </g>
    </g>
    <g id="text_13">
     <!-- Време одзива (ms) -->
     <g style="fill: #262626" transform="translate(15.935625 260.586562) rotate(-90) scale(0.12 -0.12)">
      <defs>
       <path id="ArialMT-43c" d="M 438 3319 
L 1313 3319 
L 2184 663 
L 3153 3319 
L 3963 3319 
L 3963 0 
L 3400 0 
L 3400 2672 
L 2419 0 
L 1916 0 
L 988 2800 
L 988 0 
L 438 0 
L 438 3319 
z
" transform="scale(0.015625)"/>
       <path id="ArialMT-437" d="M 1156 1500 
L 1156 1941 
Q 1513 1944 1642 1969 
Q 1772 1994 1887 2119 
Q 2003 2244 2003 2431 
Q 2003 2659 1851 2795 
Q 1700 2931 1459 2931 
Q 984 2931 794 2372 
L 259 2459 
Q 509 3394 1466 3394 
Q 1997 3394 2298 3103 
Q 2600 2813 2600 2409 
Q 2600 2003 2206 1763 
Q 2456 1628 2581 1420 
Q 2706 1213 2706 928 
Q 2706 481 2381 203 
Q 2056 -75 1472 -75 
Q 338 -75 156 934 
L 684 1047 
Q 756 728 976 553 
Q 1197 378 1481 378 
Q 1766 378 1955 539 
Q 2144 700 2144 950 
Q 2144 1144 2025 1287 
Q 1906 1431 1772 1467 
Q 1638 1503 1284 1503 
Q 1256 1503 1156 1500 
z
" transform="scale(0.015625)"/>
       <path id="ArialMT-432" d="M 425 3319 
L 1722 3319 
Q 2200 3319 2433 3239 
Q 2666 3159 2833 2946 
Q 3000 2734 3000 2438 
Q 3000 2200 2901 2023 
Q 2803 1847 2606 1728 
Q 2841 1650 2995 1436 
Q 3150 1222 3150 928 
Q 3119 456 2812 228 
Q 2506 0 1922 0 
L 425 0 
L 425 3319 
z
M 988 1922 
L 1588 1922 
Q 1947 1922 2081 1959 
Q 2216 1997 2322 2111 
Q 2428 2225 2428 2384 
Q 2428 2647 2242 2750 
Q 2056 2853 1606 2853 
L 988 2853 
L 988 1922 
z
M 988 463 
L 1728 463 
Q 2206 463 2384 573 
Q 2563 684 2572 956 
Q 2572 1116 2469 1252 
Q 2366 1388 2200 1423 
Q 2034 1459 1669 1459 
L 988 1459 
L 988 463 
z
" transform="scale(0.015625)"/>
       <path id="ArialMT-6d" d="M 422 0 
L 422 3319 
L 925 3319 
L 925 2853 
Q 1081 3097 1340 3245 
Q 1600 3394 1931 3394 
Q 2300 3394 2536 3241 
Q 2772 3088 2869 2813 
Q 3263 3394 3894 3394 
Q 4388 3394 4653 3120 
Q 4919 2847 4919 2278 
L 4919 0 
L 4359 0 
L 4359 2091 
Q 4359 2428 4304 2576 
Q 4250 2725 4106 2815 
Q 3963 2906 3769 2906 
Q 3419 2906 3187 2673 
Q 2956 2441 2956 1928 
L 2956 0 
L 2394 0 
L 2394 2156 
Q 2394 2531 2256 2718 
Q 2119 2906 1806 2906 
Q 1569 2906 1367 2781 
Q 1166 2656 1075 2415 
Q 984 2175 984 1722 
L 984 0 
L 422 0 
z
" transform="scale(0.015625)"/>
       <path id="ArialMT-73" d="M 197 991 
L 753 1078 
Q 800 744 1014 566 
Q 1228 388 1613 388 
Q 2000 388 2187 545 
Q 2375 703 2375 916 
Q 2375 1106 2209 1216 
Q 2094 1291 1634 1406 
Q 1016 1563 777 1677 
Q 538 1791 414 1992 
Q 291 2194 291 2438 
Q 291 2659 392 2848 
Q 494 3038 669 3163 
Q 800 3259 1026 3326 
Q 1253 3394 1513 3394 
Q 1903 3394 2198 3281 
Q 2494 3169 2634 2976 
Q 2775 2784 2828 2463 
L 2278 2388 
Q 2241 2644 2061 2787 
Q 1881 2931 1553 2931 
Q 1166 2931 1000 2803 
Q 834 2675 834 2503 
Q 834 2394 903 2306 
Q 972 2216 1119 2156 
Q 1203 2125 1616 2013 
Q 2213 1853 2448 1751 
Q 2684 1650 2818 1456 
Q 2953 1263 2953 975 
Q 2953 694 2789 445 
Q 2625 197 2315 61 
Q 2006 -75 1616 -75 
Q 969 -75 630 194 
Q 291 463 197 991 
z
" transform="scale(0.015625)"/>
      </defs>
      <use xlink:href="#ArialMT-412"/>
      <use xlink:href="#ArialMT-440" transform="translate(66.699219 0)"/>
      <use xlink:href="#ArialMT-435" transform="translate(122.314453 0)"/>
      <use xlink:href="#ArialMT-43c" transform="translate(177.929688 0)"/>
      <use xlink:href="#ArialMT-435" transform="translate(246.679688 0)"/>
      <use xlink:href="#ArialMT-20" transform="translate(302.294922 0)"/>
      <use xlink:href="#ArialMT-43e" transform="translate(330.078125 0)"/>
      <use xlink:href="#ArialMT-434" transform="translate(383.443359 0)"/>
      <use xlink:href="#ArialMT-437" transform="translate(441.792969 0)"/>
      <use xlink:href="#ArialMT-438" transform="translate(487.642578 0)"/>
      <use xlink:href="#ArialMT-432" transform="translate(543.501953 0)"/>
      <use xlink:href="#ArialMT-430" transform="translate(595.501953 0)"/>
      <use xlink:href="#ArialMT-20" transform="translate(651.117188 0)"/>
      <use xlink:href="#ArialMT-28" transform="translate(678.900391 0)"/>
      <use xlink:href="#ArialMT-6d" transform="translate(712.201172 0)"/>
      <use xlink:href="#ArialMT-73" transform="translate(795.501953 0)"/>
      <use xlink:href="#ArialMT-29" transform="translate(845.501953 0)"/>
     </g>
    </g>
   </g>
   <g id="line2d_23">
    <path d="M 86.454034 367.222126 
L 233.80858 364.884061 
L 381.163125 289.583241 
L 528.51767 251.801283 
L 675.872216 48.343381 
" clip-path="url(#pde366b08d9)" style="fill: none; stroke: #d62728; stroke-width: 2; stroke-linecap: round"/>
    <defs>
     <path id="mfe04e0836b" d="M 0 4 
C 1.060812 4 2.078319 3.578535 2.828427 2.828427 
C 3.578535 2.078319 4 1.060812 4 0 
C 4 -1.060812 3.578535 -2.078319 2.828427 -2.828427 
C 2.078319 -3.578535 1.060812 -4 0 -4 
C -1.060812 -4 -2.078319 -3.578535 -2.828427 -2.828427 
C -3.578535 -2.078319 -4 -1.060812 -4 0 
C -4 1.060812 -3.578535 2.078319 -2.828427 2.828427 
C -2.078319 3.578535 -1.060812 4 0 4 
z
" style="stroke: #d62728"/>
    </defs>
    <g clip-path="url(#pde366b08d9)">
     <use xlink:href="#mfe04e0836b" x="86.454034" y="367.222126" style="fill: #d62728; stroke: #d62728"/>
     <use xlink:href="#mfe04e0836b" x="233.80858" y="364.884061" style="fill: #d62728; stroke: #d62728"/>
     <use xlink:href="#mfe04e0836b" x="381.163125" y="289.583241" style="fill: #d62728; stroke: #d62728"/>
     <use xlink:href="#mfe04e0836b" x="528.51767" y="251.801283" style="fill: #d62728; stroke: #d62728"/>
     <use xlink:href="#mfe04e0836b" x="675.872216" y="48.343381" style="fill: #d62728; stroke: #d62728"/>
    </g>
   </g>
   <g id="line2d_24">
    <path d="M 86.454034 367.375663 
L 233.80858 367.153858 
L 381.163125 367.028314 
L 528.51767 366.625337 
L 675.872216 366.116214 
" clip-path="url(#pde366b08d9)" style="fill: none; stroke: #ff7f0e; stroke-width: 2; stroke-linecap: round"/>
    <defs>
     <path id="m0fce011f58" d="M -4 4 
L 4 4 
L 4 -4 
L -4 -4 
z
" style="stroke: #ff7f0e; stroke-linejoin: miter"/>
    </defs>
    <g clip-path="url(#pde366b08d9)">
     <use xlink:href="#m0fce011f58" x="86.454034" y="367.375663" style="fill: #ff7f0e; stroke: #ff7f0e; stroke-linejoin: miter"/>
     <use xlink:href="#m0fce011f58" x="233.80858" y="367.153858" style="fill: #ff7f0e; stroke: #ff7f0e; stroke-linejoin: miter"/>
     <use xlink:href="#m0fce011f58" x="381.163125" y="367.028314" style="fill: #ff7f0e; stroke: #ff7f0e; stroke-linejoin: miter"/>
     <use xlink:href="#m0fce011f58" x="528.51767" y="366.625337" style="fill: #ff7f0e; stroke: #ff7f0e; stroke-linejoin: miter"/>
     <use xlink:href="#m0fce011f58" x="675.872216" y="366.116214" style="fill: #ff7f0e; stroke: #ff7f0e; stroke-linejoin: miter"/>
    </g>
   </g>
   <g id="line2d_25">
    <path d="M 86.454034 367.379744 
L 233.80858 367.379176 
L 381.163125 367.366202 
L 528.51767 367.346724 
L 675.872216 367.240727 
" clip-path="url(#pde366b08d9)" style="fill: none; stroke: #1f77b4; stroke-width: 2; stroke-linecap: round"/>
    <defs>
     <path id="m71c28de6a8" d="M 0 -4 
L -4 4 
L 4 4 
z
" style="stroke: #1f77b4; stroke-linejoin: miter"/>
    </defs>
    <g clip-path="url(#pde366b08d9)">
     <use xlink:href="#m71c28de6a8" x="86.454034" y="367.379744" style="fill: #1f77b4; stroke: #1f77b4; stroke-linejoin: miter"/>
     <use xlink:href="#m71c28de6a8" x="233.80858" y="367.379176" style="fill: #1f77b4; stroke: #1f77b4; stroke-linejoin: miter"/>
     <use xlink:href="#m71c28de6a8" x="381.163125" y="367.366202" style="fill: #1f77b4; stroke: #1f77b4; stroke-linejoin: miter"/>
     <use xlink:href="#m71c28de6a8" x="528.51767" y="367.346724" style="fill: #1f77b4; stroke: #1f77b4; stroke-linejoin: miter"/>
     <use xlink:href="#m71c28de6a8" x="675.872216" y="367.240727" style="fill: #1f77b4; stroke: #1f77b4; stroke-linejoin: miter"/>
    </g>
   </g>
   <g id="line2d_26">
    <path d="M 86.454034 367.379741 
L 233.80858 367.37912 
L 381.163125 367.365987 
L 528.51767 367.345793 
L 675.872216 367.23297 
" clip-path="url(#pde366b08d9)" style="fill: none; stroke: #2ca02c; stroke-width: 2; stroke-linecap: round"/>
    <defs>
     <path id="m35f0e90ca4" d="M -0 4 
L 4 -4 
L -4 -4 
z
" style="stroke: #2ca02c; stroke-linejoin: miter"/>
    </defs>
    <g clip-path="url(#pde366b08d9)">
     <use xlink:href="#m35f0e90ca4" x="86.454034" y="367.379741" style="fill: #2ca02c; stroke: #2ca02c; stroke-linejoin: miter"/>
     <use xlink:href="#m35f0e90ca4" x="233.80858" y="367.37912" style="fill: #2ca02c; stroke: #2ca02c; stroke-linejoin: miter"/>
     <use xlink:href="#m35f0e90ca4" x="381.163125" y="367.365987" style="fill: #2ca02c; stroke: #2ca02c; stroke-linejoin: miter"/>
     <use xlink:href="#m35f0e90ca4" x="528.51767" y="367.345793" style="fill: #2ca02c; stroke: #2ca02c; stroke-linejoin: miter"/>
     <use xlink:href="#m35f0e90ca4" x="675.872216" y="367.23297" style="fill: #2ca02c; stroke: #2ca02c; stroke-linejoin: miter"/>
    </g>
   </g>
   <g id="line2d_27">
    <path d="M 86.454034 367.379724 
L 233.80858 367.377032 
L 381.163125 367.366701 
L 528.51767 367.346716 
L 675.872216 367.247957 
" clip-path="url(#pde366b08d9)" style="fill: none; stroke: #9467bd; stroke-width: 2; stroke-linecap: round"/>
    <defs>
     <path id="mb61b031d48" d="M -4 4 
L 4 -4 
M -4 -4 
L 4 4 
" style="stroke: #9467bd"/>
    </defs>
    <g clip-path="url(#pde366b08d9)">
     <use xlink:href="#mb61b031d48" x="86.454034" y="367.379724" style="fill: #9467bd; stroke: #9467bd"/>
     <use xlink:href="#mb61b031d48" x="233.80858" y="367.377032" style="fill: #9467bd; stroke: #9467bd"/>
     <use xlink:href="#mb61b031d48" x="381.163125" y="367.366701" style="fill: #9467bd; stroke: #9467bd"/>
     <use xlink:href="#mb61b031d48" x="528.51767" y="367.346716" style="fill: #9467bd; stroke: #9467bd"/>
     <use xlink:href="#mb61b031d48" x="675.872216" y="367.247957" style="fill: #9467bd; stroke: #9467bd"/>
    </g>
   </g>
   <g id="line2d_28">
    <path d="M 56.983125 244.838482 
L 705.343125 244.838482 
" clip-path="url(#pde366b08d9)" style="fill: none; stroke-dasharray: 5.55,2.4; stroke-dashoffset: 0; stroke: #808080; stroke-opacity: 0.7; stroke-width: 1.5"/>
   </g>
   <g id="patch_3">
    <path d="M 56.983125 383.331562 
L 56.983125 32.391562 
" style="fill: none; stroke: #cccccc; stroke-linejoin: miter; stroke-linecap: square"/>
   </g>
   <g id="patch_4">
    <path d="M 705.343125 383.331562 
L 705.343125 32.391562 
" style="fill: none; stroke: #cccccc; stroke-linejoin: miter; stroke-linecap: square"/>
   </g>
   <g id="patch_5">
    <path d="M 56.983125 383.331562 
L 705.343125 383.331562 
" style="fill: none; stroke: #cccccc; stroke-linejoin: miter; stroke-linecap: square"/>
   </g>
   <g id="patch_6">
    <path d="M 56.983125 32.391562 
L 705.343125 32.391562 
" style="fill: none; stroke: #cccccc; stroke-linejoin: miter; stroke-linecap: square"/>
   </g>
   <g id="text_14">
    <!-- Зависност времена одзива LSP операција од величине датотеке -->
    <g style="fill: #262626" transform="translate(155.943594 17.391562) scale(0.14 -0.14)">
     <defs>
      <path id="Arial-BoldMT-417" d="M 1119 3331 
L 219 3541 
Q 509 4659 1872 4659 
Q 2678 4659 3089 4304 
Q 3500 3950 3500 3472 
Q 3500 3144 3312 2880 
Q 3125 2616 2750 2416 
Q 3206 2259 3434 1973 
Q 3663 1688 3663 1269 
Q 3663 666 3220 294 
Q 2778 -78 1897 -78 
Q 1178 -78 762 161 
Q 347 400 138 1056 
L 984 1334 
Q 1116 922 1333 800 
Q 1550 678 1869 678 
Q 2306 678 2506 867 
Q 2706 1056 2706 1300 
Q 2706 1581 2479 1753 
Q 2253 1925 1797 1925 
L 1588 1925 
L 1588 2616 
L 1694 2616 
Q 2119 2616 2344 2806 
Q 2569 2997 2569 3313 
Q 2569 3563 2386 3734 
Q 2203 3906 1863 3906 
Q 1281 3906 1119 3331 
z
" transform="scale(0.015625)"/>
      <path id="Arial-BoldMT-430" d="M 1116 2306 
L 319 2450 
Q 453 2931 781 3162 
Q 1109 3394 1756 3394 
Q 2344 3394 2631 3255 
Q 2919 3116 3036 2902 
Q 3153 2688 3153 2116 
L 3144 1091 
Q 3144 653 3186 445 
Q 3228 238 3344 0 
L 2475 0 
Q 2441 88 2391 259 
Q 2369 338 2359 363 
Q 2134 144 1878 34 
Q 1622 -75 1331 -75 
Q 819 -75 523 203 
Q 228 481 228 906 
Q 228 1188 362 1408 
Q 497 1628 739 1745 
Q 981 1863 1438 1950 
Q 2053 2066 2291 2166 
L 2291 2253 
Q 2291 2506 2166 2614 
Q 2041 2722 1694 2722 
Q 1459 2722 1328 2630 
Q 1197 2538 1116 2306 
z
M 2291 1594 
Q 2122 1538 1756 1459 
Q 1391 1381 1278 1306 
Q 1106 1184 1106 997 
Q 1106 813 1243 678 
Q 1381 544 1594 544 
Q 1831 544 2047 700 
Q 2206 819 2256 991 
Q 2291 1103 2291 1419 
L 2291 1594 
z
" transform="scale(0.015625)"/>
      <path id="Arial-BoldMT-432" d="M 469 3319 
L 2391 3319 
Q 2981 3319 3275 3103 
Q 3569 2888 3569 2453 
Q 3569 2175 3408 1969 
Q 3247 1763 3003 1694 
Q 3347 1609 3515 1378 
Q 3684 1147 3684 872 
Q 3684 484 3400 242 
Q 3116 0 2559 0 
L 469 0 
L 469 3319 
z
M 1353 1941 
L 1919 1941 
Q 2328 1941 2511 2044 
Q 2694 2147 2694 2369 
Q 2694 2578 2523 2667 
Q 2353 2756 1919 2756 
L 1353 2756 
L 1353 1941 
z
M 1353 563 
L 2047 563 
Q 2422 563 2594 653 
Q 2766 744 2766 978 
Q 2766 1222 2569 1314 
Q 2372 1406 1803 1406 
L 1353 1406 
L 1353 563 
z
" transform="scale(0.015625)"/>
      <path id="Arial-BoldMT-438" d="M 438 3319 
L 1281 3319 
L 1281 1234 
L 2631 3319 
L 3494 3319 
L 3494 0 
L 2650 0 
L 2650 2122 
L 1281 0 
L 438 0 
L 438 3319 
z
" transform="scale(0.015625)"/>
      <path id="Arial-BoldMT-441" d="M 3353 2338 
L 2488 2181 
Q 2444 2441 2289 2572 
Q 2134 2703 1888 2703 
Q 1559 2703 1364 2476 
Q 1169 2250 1169 1719 
Q 1169 1128 1367 884 
Q 1566 641 1900 641 
Q 2150 641 2309 783 
Q 2469 925 2534 1272 
L 3397 1125 
Q 3263 531 2881 228 
Q 2500 -75 1859 -75 
Q 1131 -75 698 384 
Q 266 844 266 1656 
Q 266 2478 700 2936 
Q 1134 3394 1875 3394 
Q 2481 3394 2839 3133 
Q 3197 2872 3353 2338 
z
" transform="scale(0.015625)"/>
      <path id="Arial-BoldMT-43d" d="M 425 3319 
L 1303 3319 
L 1303 2103 
L 2559 2103 
L 2559 3319 
L 3441 3319 
L 3441 0 
L 2559 0 
L 2559 1394 
L 1303 1394 
L 1303 0 
L 425 0 
L 425 3319 
z
" transform="scale(0.015625)"/>
      <path id="Arial-BoldMT-43e" d="M 256 1706 
Q 256 2144 472 2553 
Q 688 2963 1083 3178 
Q 1478 3394 1966 3394 
Q 2719 3394 3200 2905 
Q 3681 2416 3681 1669 
Q 3681 916 3195 420 
Q 2709 -75 1972 -75 
Q 1516 -75 1102 131 
Q 688 338 472 736 
Q 256 1134 256 1706 
z
M 1156 1659 
Q 1156 1166 1390 903 
Q 1625 641 1969 641 
Q 2313 641 2545 903 
Q 2778 1166 2778 1666 
Q 2778 2153 2545 2415 
Q 2313 2678 1969 2678 
Q 1625 2678 1390 2415 
Q 1156 2153 1156 1659 
z
" transform="scale(0.015625)"/>
      <path id="Arial-BoldMT-442" d="M 66 3319 
L 3069 3319 
L 3069 2609 
L 2006 2609 
L 2006 0 
L 1128 0 
L 1128 2609 
L 66 2609 
L 66 3319 
z
" transform="scale(0.015625)"/>
      <path id="Arial-BoldMT-20" transform="scale(0.015625)"/>
      <path id="Arial-BoldMT-440" d="M 434 3319 
L 1253 3319 
L 1253 2831 
Q 1413 3081 1684 3237 
Q 1956 3394 2288 3394 
Q 2866 3394 3269 2941 
Q 3672 2488 3672 1678 
Q 3672 847 3265 386 
Q 2859 -75 2281 -75 
Q 2006 -75 1782 34 
Q 1559 144 1313 409 
L 1313 -1263 
L 434 -1263 
L 434 3319 
z
M 1303 1716 
Q 1303 1156 1525 889 
Q 1747 622 2066 622 
Q 2372 622 2575 867 
Q 2778 1113 2778 1672 
Q 2778 2194 2568 2447 
Q 2359 2700 2050 2700 
Q 1728 2700 1515 2451 
Q 1303 2203 1303 1716 
z
" transform="scale(0.015625)"/>
      <path id="Arial-BoldMT-435" d="M 2381 1056 
L 3256 909 
Q 3088 428 2723 176 
Q 2359 -75 1813 -75 
Q 947 -75 531 491 
Q 203 944 203 1634 
Q 203 2459 634 2926 
Q 1066 3394 1725 3394 
Q 2466 3394 2894 2905 
Q 3322 2416 3303 1406 
L 1103 1406 
Q 1113 1016 1316 798 
Q 1519 581 1822 581 
Q 2028 581 2168 693 
Q 2309 806 2381 1056 
z
M 2431 1944 
Q 2422 2325 2234 2523 
Q 2047 2722 1778 2722 
Q 1491 2722 1303 2513 
Q 1116 2303 1119 1944 
L 2431 1944 
z
" transform="scale(0.015625)"/>
      <path id="Arial-BoldMT-43c" d="M 484 3319 
L 1572 3319 
L 2397 1006 
L 3228 3319 
L 4313 3319 
L 4313 0 
L 3566 0 
L 3566 2184 
L 2756 0 
L 2006 0 
L 1234 2184 
L 1234 0 
L 484 0 
L 484 3319 
z
" transform="scale(0.015625)"/>
      <path id="Arial-BoldMT-434" d="M 3203 0 
L 691 0 
L 691 -875 
L -22 -875 
L -22 719 
L 338 719 
Q 563 969 709 1500 
Q 856 2031 884 3319 
L 3563 3319 
L 3563 719 
L 3919 719 
L 3919 -875 
L 3203 -875 
L 3203 0 
z
M 2694 719 
L 2697 2597 
L 1634 2597 
Q 1581 1222 1197 719 
L 2694 719 
z
" transform="scale(0.015625)"/>
      <path id="Arial-BoldMT-437" d="M 1353 1363 
L 1353 1934 
Q 1581 1934 1684 1964 
Q 1788 1994 1880 2108 
Q 1972 2222 1972 2369 
Q 1972 2525 1858 2658 
Q 1744 2791 1516 2791 
Q 1341 2791 1203 2716 
Q 1066 2641 953 2359 
L 209 2519 
Q 322 2956 690 3175 
Q 1059 3394 1531 3394 
Q 2131 3394 2461 3119 
Q 2791 2844 2791 2428 
Q 2791 2169 2648 1998 
Q 2506 1828 2200 1681 
Q 2569 1581 2751 1378 
Q 2934 1175 2934 872 
Q 2934 484 2571 204 
Q 2209 -75 1528 -75 
Q 341 -75 75 853 
L 878 1000 
Q 1072 513 1519 513 
Q 1766 513 1914 642 
Q 2063 772 2063 947 
Q 2063 1141 1908 1252 
Q 1753 1363 1503 1363 
L 1353 1363 
z
" transform="scale(0.015625)"/>
      <path id="Arial-BoldMT-4c" d="M 491 0 
L 491 4544 
L 1416 4544 
L 1416 772 
L 3716 772 
L 3716 0 
L 491 0 
z
" transform="scale(0.015625)"/>
      <path id="Arial-BoldMT-53" d="M 231 1491 
L 1131 1578 
Q 1213 1125 1461 912 
Q 1709 700 2131 700 
Q 2578 700 2804 889 
Q 3031 1078 3031 1331 
Q 3031 1494 2936 1608 
Q 2841 1722 2603 1806 
Q 2441 1863 1863 2006 
Q 1119 2191 819 2459 
Q 397 2838 397 3381 
Q 397 3731 595 4036 
Q 794 4341 1167 4500 
Q 1541 4659 2069 4659 
Q 2931 4659 3367 4281 
Q 3803 3903 3825 3272 
L 2900 3231 
Q 2841 3584 2645 3739 
Q 2450 3894 2059 3894 
Q 1656 3894 1428 3728 
Q 1281 3622 1281 3444 
Q 1281 3281 1419 3166 
Q 1594 3019 2269 2859 
Q 2944 2700 3267 2529 
Q 3591 2359 3773 2064 
Q 3956 1769 3956 1334 
Q 3956 941 3737 597 
Q 3519 253 3119 86 
Q 2719 -81 2122 -81 
Q 1253 -81 787 320 
Q 322 722 231 1491 
z
" transform="scale(0.015625)"/>
      <path id="Arial-BoldMT-50" d="M 466 0 
L 466 4581 
L 1950 4581 
Q 2794 4581 3050 4513 
Q 3444 4409 3709 4064 
Q 3975 3719 3975 3172 
Q 3975 2750 3822 2462 
Q 3669 2175 3433 2011 
Q 3197 1847 2953 1794 
Q 2622 1728 1994 1728 
L 1391 1728 
L 1391 0 
L 466 0 
z
M 1391 3806 
L 1391 2506 
L 1897 2506 
Q 2444 2506 2628 2578 
Q 2813 2650 2917 2803 
Q 3022 2956 3022 3159 
Q 3022 3409 2875 3571 
Q 2728 3734 2503 3775 
Q 2338 3806 1838 3806 
L 1391 3806 
z
" transform="scale(0.015625)"/>
      <path id="Arial-BoldMT-43f" d="M 425 3319 
L 3372 3319 
L 3372 0 
L 2494 0 
L 2494 2609 
L 1303 2609 
L 1303 0 
L 425 0 
L 425 3319 
z
" transform="scale(0.015625)"/>
      <path id="Arial-BoldMT-446" d="M 428 3319 
L 1306 3319 
L 1306 709 
L 2559 709 
L 2559 3319 
L 3438 3319 
L 3438 709 
L 3784 709 
L 3784 -875 
L 3075 -875 
L 3075 0 
L 428 0 
L 428 3319 
z
" transform="scale(0.015625)"/>
      <path id="Arial-BoldMT-458" d="M 441 3769 
L 441 4581 
L 1319 4581 
L 1319 3769 
L 441 3769 
z
M 1319 3319 
L 1319 103 
Q 1319 -531 1236 -792 
Q 1153 -1053 917 -1200 
Q 681 -1347 316 -1347 
Q 184 -1347 32 -1323 
Q -119 -1300 -294 -1253 
L -141 -503 
Q -78 -516 -23 -523 
Q 31 -531 78 -531 
Q 213 -531 298 -473 
Q 384 -416 412 -334 
Q 441 -253 441 153 
L 441 3319 
L 1319 3319 
z
" transform="scale(0.015625)"/>
      <path id="Arial-BoldMT-43b" d="M 697 3319 
L 3638 3319 
L 3638 0 
L 2763 0 
L 2763 2606 
L 1566 2606 
L 1566 1116 
Q 1566 547 1434 317 
Q 1303 88 1143 16 
Q 984 -56 631 -56 
Q 422 -56 78 0 
L 78 647 
Q 106 647 225 641 
Q 363 631 438 631 
Q 616 631 656 748 
Q 697 866 697 1400 
L 697 3319 
z
" transform="scale(0.015625)"/>
      <path id="Arial-BoldMT-447" d="M 356 3319 
L 1244 3319 
L 1244 2525 
Q 1244 2253 1292 2120 
Q 1341 1988 1498 1892 
Q 1656 1797 1897 1797 
Q 2131 1797 2422 1903 
L 2422 3319 
L 3300 3319 
L 3300 0 
L 2422 0 
L 2422 1325 
Q 1909 1188 1641 1188 
Q 1238 1188 916 1361 
Q 594 1534 475 1804 
Q 356 2075 356 2525 
L 356 3319 
z
" transform="scale(0.015625)"/>
      <path id="Arial-BoldMT-43a" d="M 425 3319 
L 1300 3319 
L 1300 1963 
Q 1519 1988 1609 2097 
Q 1700 2206 1828 2575 
Q 1997 3066 2197 3203 
Q 2397 3341 2722 3341 
Q 2822 3341 3069 3325 
L 3072 2744 
Q 2725 2744 2628 2678 
Q 2531 2609 2419 2269 
Q 2266 1809 1978 1703 
Q 2394 1588 2681 981 
Q 2697 950 2716 916 
L 3206 0 
L 2263 0 
L 1825 959 
Q 1691 1250 1592 1333 
Q 1494 1416 1300 1416 
L 1300 0 
L 425 0 
L 425 3319 
z
" transform="scale(0.015625)"/>
     </defs>
     <use xlink:href="#Arial-BoldMT-417"/>
     <use xlink:href="#Arial-BoldMT-430" transform="translate(62.646484 0)"/>
     <use xlink:href="#Arial-BoldMT-432" transform="translate(118.261719 0)"/>
     <use xlink:href="#Arial-BoldMT-438" transform="translate(179.736328 0)"/>
     <use xlink:href="#Arial-BoldMT-441" transform="translate(241.210938 0)"/>
     <use xlink:href="#Arial-BoldMT-43d" transform="translate(296.826172 0)"/>
     <use xlink:href="#Arial-BoldMT-43e" transform="translate(357.226562 0)"/>
     <use xlink:href="#Arial-BoldMT-441" transform="translate(416.935547 0)"/>
     <use xlink:href="#Arial-BoldMT-442" transform="translate(472.550781 0)"/>
     <use xlink:href="#Arial-BoldMT-20" transform="translate(521.525391 0)"/>
     <use xlink:href="#Arial-BoldMT-432" transform="translate(549.308594 0)"/>
     <use xlink:href="#Arial-BoldMT-440" transform="translate(610.783203 0)"/>
     <use xlink:href="#Arial-BoldMT-435" transform="translate(671.867188 0)"/>
     <use xlink:href="#Arial-BoldMT-43c" transform="translate(726.107422 0)"/>
     <use xlink:href="#Arial-BoldMT-435" transform="translate(800.082031 0)"/>
     <use xlink:href="#Arial-BoldMT-43d" transform="translate(855.697266 0)"/>
     <use xlink:href="#Arial-BoldMT-430" transform="translate(916.097656 0)"/>
     <use xlink:href="#Arial-BoldMT-20" transform="translate(971.712891 0)"/>
     <use xlink:href="#Arial-BoldMT-43e" transform="translate(999.496094 0)"/>
     <use xlink:href="#Arial-BoldMT-434" transform="translate(1059.205078 0)"/>
     <use xlink:href="#Arial-BoldMT-437" transform="translate(1123.931641 0)"/>
     <use xlink:href="#Arial-BoldMT-438" transform="translate(1173.638672 0)"/>
     <use xlink:href="#Arial-BoldMT-432" transform="translate(1235.113281 0)"/>
     <use xlink:href="#Arial-BoldMT-430" transform="translate(1295.212891 0)"/>
     <use xlink:href="#Arial-BoldMT-20" transform="translate(1350.828125 0)"/>
     <use xlink:href="#Arial-BoldMT-4c" transform="translate(1378.611328 0)"/>
     <use xlink:href="#Arial-BoldMT-53" transform="translate(1439.695312 0)"/>
     <use xlink:href="#Arial-BoldMT-50" transform="translate(1506.394531 0)"/>
     <use xlink:href="#Arial-BoldMT-20" transform="translate(1571.34375 0)"/>
     <use xlink:href="#Arial-BoldMT-43e" transform="translate(1599.126953 0)"/>
     <use xlink:href="#Arial-BoldMT-43f" transform="translate(1660.210938 0)"/>
     <use xlink:href="#Arial-BoldMT-435" transform="translate(1720.611328 0)"/>
     <use xlink:href="#Arial-BoldMT-440" transform="translate(1776.226562 0)"/>
     <use xlink:href="#Arial-BoldMT-430" transform="translate(1837.310547 0)"/>
     <use xlink:href="#Arial-BoldMT-446" transform="translate(1892.925781 0)"/>
     <use xlink:href="#Arial-BoldMT-438" transform="translate(1954.400391 0)"/>
     <use xlink:href="#Arial-BoldMT-458" transform="translate(2015.875 0)"/>
     <use xlink:href="#Arial-BoldMT-430" transform="translate(2043.658203 0)"/>
     <use xlink:href="#Arial-BoldMT-20" transform="translate(2099.273438 0)"/>
     <use xlink:href="#Arial-BoldMT-43e" transform="translate(2127.056641 0)"/>
     <use xlink:href="#Arial-BoldMT-434" transform="translate(2186.765625 0)"/>
     <use xlink:href="#Arial-BoldMT-20" transform="translate(2250.242188 0)"/>
     <use xlink:href="#Arial-BoldMT-432" transform="translate(2278.025391 0)"/>
     <use xlink:href="#Arial-BoldMT-435" transform="translate(2338.125 0)"/>
     <use xlink:href="#Arial-BoldMT-43b" transform="translate(2393.740234 0)"/>
     <use xlink:href="#Arial-BoldMT-438" transform="translate(2457.265625 0)"/>
     <use xlink:href="#Arial-BoldMT-447" transform="translate(2518.740234 0)"/>
     <use xlink:href="#Arial-BoldMT-438" transform="translate(2576.796875 0)"/>
     <use xlink:href="#Arial-BoldMT-43d" transform="translate(2638.271484 0)"/>
     <use xlink:href="#Arial-BoldMT-435" transform="translate(2698.671875 0)"/>
     <use xlink:href="#Arial-BoldMT-20" transform="translate(2754.287109 0)"/>
     <use xlink:href="#Arial-BoldMT-434" transform="translate(2782.070312 0)"/>
     <use xlink:href="#Arial-BoldMT-430" transform="translate(2845.546875 0)"/>
     <use xlink:href="#Arial-BoldMT-442" transform="translate(2901.162109 0)"/>
     <use xlink:href="#Arial-BoldMT-43e" transform="translate(2948.761719 0)"/>
     <use xlink:href="#Arial-BoldMT-442" transform="translate(3007.345703 0)"/>
     <use xlink:href="#Arial-BoldMT-435" transform="translate(3056.320312 0)"/>
     <use xlink:href="#Arial-BoldMT-43a" transform="translate(3111.935547 0)"/>
     <use xlink:href="#Arial-BoldMT-435" transform="translate(3161.984375 0)"/>
    </g>
   </g>
   <g id="legend_1">
    <g id="patch_7">
     <path d="M 64.683125 135.518281 
L 397.273281 135.518281 
Q 399.473281 135.518281 399.473281 133.318281 
L 399.473281 40.091562 
Q 399.473281 37.891562 397.273281 37.891562 
L 64.683125 37.891562 
Q 62.483125 37.891562 62.483125 40.091562 
L 62.483125 133.318281 
Q 62.483125 135.518281 64.683125 135.518281 
z
" style="fill: #ffffff; opacity: 0.8; stroke: #cccccc; stroke-linejoin: miter"/>
    </g>
    <g id="line2d_29">
     <path d="M 66.883125 46.504219 
L 77.883125 46.504219 
L 88.883125 46.504219 
" style="fill: none; stroke: #d62728; stroke-width: 2; stroke-linecap: round"/>
     <g>
      <use xlink:href="#mfe04e0836b" x="77.883125" y="46.504219" style="fill: #d62728; stroke: #d62728"/>
     </g>
    </g>
    <g id="text_15">
     <!-- Обавештење о измени (потпуно поновно рашчлањивање) -->
     <g style="fill: #262626" transform="translate(97.683125 50.354219) scale(0.11 -0.11)">
      <defs>
       <path id="ArialMT-41e" d="M 309 2231 
Q 309 3372 921 4017 
Q 1534 4663 2503 4663 
Q 3138 4663 3647 4359 
Q 4156 4056 4423 3514 
Q 4691 2972 4691 2284 
Q 4691 1588 4409 1038 
Q 4128 488 3612 205 
Q 3097 -78 2500 -78 
Q 1853 -78 1343 234 
Q 834 547 571 1087 
Q 309 1628 309 2231 
z
M 934 2222 
Q 934 1394 1379 917 
Q 1825 441 2497 441 
Q 3181 441 3623 922 
Q 4066 1403 4066 2288 
Q 4066 2847 3877 3264 
Q 3688 3681 3323 3911 
Q 2959 4141 2506 4141 
Q 1863 4141 1398 3698 
Q 934 3256 934 2222 
z
" transform="scale(0.015625)"/>
       <path id="ArialMT-448" d="M 441 3319 
L 1003 3319 
L 1003 466 
L 2284 466 
L 2284 3319 
L 2847 3319 
L 2847 466 
L 4131 466 
L 4131 3319 
L 4691 3319 
L 4691 0 
L 441 0 
L 441 3319 
z
" transform="scale(0.015625)"/>
       <path id="ArialMT-45a" d="M 2816 1938 
L 3531 1938 
Q 4225 1938 4601 1678 
Q 4978 1419 4978 966 
Q 4978 563 4662 281 
Q 4347 0 3659 0 
L 2253 0 
L 2253 1472 
L 972 1472 
L 972 0 
L 409 0 
L 409 3319 
L 972 3319 
L 972 1938 
L 2253 1938 
L 2253 3319 
L 2816 3319 
L 2816 1938 
z
M 2816 441 
L 3406 441 
Q 3947 441 4172 564 
Q 4397 688 4397 950 
Q 4397 1156 4230 1314 
Q 4063 1472 3481 1472 
L 2816 1472 
L 2816 441 
z
" transform="scale(0.015625)"/>
       <path id="ArialMT-43f" d="M 425 3319 
L 3044 3319 
L 3044 0 
L 2481 0 
L 2481 2853 
L 988 2853 
L 988 0 
L 425 0 
L 425 3319 
z
" transform="scale(0.015625)"/>
       <path id="ArialMT-443" d="M 397 -1278 
L 334 -750 
Q 519 -800 656 -800 
Q 844 -800 956 -737 
Q 1069 -675 1141 -563 
Q 1194 -478 1313 -144 
Q 1328 -97 1363 -6 
L 103 3319 
L 709 3319 
L 1400 1397 
Q 1534 1031 1641 628 
Q 1738 1016 1872 1384 
L 2581 3319 
L 3144 3319 
L 1881 -56 
Q 1678 -603 1566 -809 
Q 1416 -1088 1222 -1217 
Q 1028 -1347 759 -1347 
Q 597 -1347 397 -1278 
z
" transform="scale(0.015625)"/>
      </defs>
      <use xlink:href="#ArialMT-41e"/>
      <use xlink:href="#ArialMT-431" transform="translate(77.783203 0)"/>
      <use xlink:href="#ArialMT-430" transform="translate(132.808594 0)"/>
      <use xlink:href="#ArialMT-432" transform="translate(188.423828 0)"/>
      <use xlink:href="#ArialMT-435" transform="translate(240.423828 0)"/>
      <use xlink:href="#ArialMT-448" transform="translate(296.039062 0)"/>
      <use xlink:href="#ArialMT-442" transform="translate(376.263672 0)"/>
      <use xlink:href="#ArialMT-435" transform="translate(420.939453 0)"/>
      <use xlink:href="#ArialMT-45a" transform="translate(476.554688 0)"/>
      <use xlink:href="#ArialMT-435" transform="translate(557.804688 0)"/>
      <use xlink:href="#ArialMT-20" transform="translate(613.419922 0)"/>
      <use xlink:href="#ArialMT-43e" transform="translate(641.203125 0)"/>
      <use xlink:href="#ArialMT-20" transform="translate(696.818359 0)"/>
      <use xlink:href="#ArialMT-438" transform="translate(724.601562 0)"/>
      <use xlink:href="#ArialMT-437" transform="translate(780.460938 0)"/>
      <use xlink:href="#ArialMT-43c" transform="translate(826.310547 0)"/>
      <use xlink:href="#ArialMT-435" transform="translate(895.060547 0)"/>
      <use xlink:href="#ArialMT-43d" transform="translate(950.675781 0)"/>
      <use xlink:href="#ArialMT-438" transform="translate(1005.900391 0)"/>
      <use xlink:href="#ArialMT-20" transform="translate(1061.759766 0)"/>
      <use xlink:href="#ArialMT-28" transform="translate(1089.542969 0)"/>
      <use xlink:href="#ArialMT-43f" transform="translate(1122.84375 0)"/>
      <use xlink:href="#ArialMT-43e" transform="translate(1176.994141 0)"/>
      <use xlink:href="#ArialMT-442" transform="translate(1230.359375 0)"/>
      <use xlink:href="#ArialMT-43f" transform="translate(1276.160156 0)"/>
      <use xlink:href="#ArialMT-443" transform="translate(1330.310547 0)"/>
      <use xlink:href="#ArialMT-43d" transform="translate(1380.310547 0)"/>
      <use xlink:href="#ArialMT-43e" transform="translate(1435.535156 0)"/>
      <use xlink:href="#ArialMT-20" transform="translate(1491.150391 0)"/>
      <use xlink:href="#ArialMT-43f" transform="translate(1518.933594 0)"/>
      <use xlink:href="#ArialMT-43e" transform="translate(1573.083984 0)"/>
      <use xlink:href="#ArialMT-43d" transform="translate(1628.699219 0)"/>
      <use xlink:href="#ArialMT-43e" transform="translate(1683.923828 0)"/>
      <use xlink:href="#ArialMT-432" transform="translate(1739.539062 0)"/>
      <use xlink:href="#ArialMT-43d" transform="translate(1792.664062 0)"/>
      <use xlink:href="#ArialMT-43e" transform="translate(1847.888672 0)"/>
      <use xlink:href="#ArialMT-20" transform="translate(1903.503906 0)"/>
      <use xlink:href="#ArialMT-440" transform="translate(1931.287109 0)"/>
      <use xlink:href="#ArialMT-430" transform="translate(1986.902344 0)"/>
      <use xlink:href="#ArialMT-448" transform="translate(2042.517578 0)"/>
      <use xlink:href="#ArialMT-447" transform="translate(2122.742188 0)"/>
      <use xlink:href="#ArialMT-43b" transform="translate(2174.841797 0)"/>
      <use xlink:href="#ArialMT-430" transform="translate(2233.191406 0)"/>
      <use xlink:href="#ArialMT-45a" transform="translate(2288.806641 0)"/>
      <use xlink:href="#ArialMT-438" transform="translate(2370.056641 0)"/>
      <use xlink:href="#ArialMT-432" transform="translate(2425.916016 0)"/>
      <use xlink:href="#ArialMT-430" transform="translate(2477.916016 0)"/>
      <use xlink:href="#ArialMT-45a" transform="translate(2533.53125 0)"/>
      <use xlink:href="#ArialMT-435" transform="translate(2614.78125 0)"/>
      <use xlink:href="#ArialMT-29" transform="translate(2670.396484 0)"/>
     </g>
    </g>
    <g id="line2d_30">
     <path d="M 66.883125 62.192969 
L 77.883125 62.192969 
L 88.883125 62.192969 
" style="fill: none; stroke: #ff7f0e; stroke-width: 2; stroke-linecap: round"/>
     <g>
      <use xlink:href="#m0fce011f58" x="77.883125" y="62.192969" style="fill: #ff7f0e; stroke: #ff7f0e; stroke-linejoin: miter"/>
     </g>
    </g>
    <g id="text_16">
     <!-- Допуна кода -->
     <g style="fill: #262626" transform="translate(97.683125 66.042969) scale(0.11 -0.11)">
      <defs>
       <path id="ArialMT-414" d="M 909 4581 
L 3697 4581 
L 3697 541 
L 4109 541 
L 4109 -1069 
L 3569 -1069 
L 3569 0 
L 541 0 
L 541 -1069 
L 0 -1069 
L 0 541 
L 356 541 
Q 909 1375 909 3913 
L 909 4581 
z
M 3091 4041 
L 1494 4041 
L 1494 3806 
Q 1494 3222 1389 2208 
Q 1284 1194 978 541 
L 3091 541 
L 3091 4041 
z
" transform="scale(0.015625)"/>
      </defs>
      <use xlink:href="#ArialMT-414"/>
      <use xlink:href="#ArialMT-43e" transform="translate(68.849609 0)"/>
      <use xlink:href="#ArialMT-43f" transform="translate(124.464844 0)"/>
      <use xlink:href="#ArialMT-443" transform="translate(178.615234 0)"/>
      <use xlink:href="#ArialMT-43d" transform="translate(228.615234 0)"/>
      <use xlink:href="#ArialMT-430" transform="translate(283.839844 0)"/>
      <use xlink:href="#ArialMT-20" transform="translate(339.455078 0)"/>
      <use xlink:href="#ArialMT-43a" transform="translate(367.238281 0)"/>
      <use xlink:href="#ArialMT-43e" transform="translate(412.113281 0)"/>
      <use xlink:href="#ArialMT-434" transform="translate(465.478516 0)"/>
      <use xlink:href="#ArialMT-430" transform="translate(523.828125 0)"/>
     </g>
    </g>
    <g id="line2d_31">
     <path d="M 66.883125 77.881719 
L 77.883125 77.881719 
L 88.883125 77.881719 
" style="fill: none; stroke: #1f77b4; stroke-width: 2; stroke-linecap: round"/>
     <g>
      <use xlink:href="#m71c28de6a8" x="77.883125" y="77.881719" style="fill: #1f77b4; stroke: #1f77b4; stroke-linejoin: miter"/>
     </g>
    </g>
    <g id="text_17">
     <!-- Информације при задржавању курсора -->
     <g style="fill: #262626" transform="translate(97.683125 81.731719) scale(0.11 -0.11)">
      <defs>
       <path id="ArialMT-418" d="M 503 4581 
L 1053 4581 
L 1053 953 
L 3491 4581 
L 4100 4581 
L 4100 0 
L 3550 0 
L 3550 3619 
L 1109 0 
L 503 0 
L 503 4581 
z
" transform="scale(0.015625)"/>
       <path id="ArialMT-444" d="M 2353 4581 
L 2916 4581 
L 2916 2997 
Q 3091 3197 3300 3295 
Q 3509 3394 3750 3394 
Q 4341 3394 4686 2901 
Q 5031 2409 5031 1663 
Q 5031 884 4659 404 
Q 4288 -75 3734 -75 
Q 3553 -75 3365 -18 
Q 3178 38 2916 288 
L 2916 -1272 
L 2353 -1272 
L 2353 288 
Q 2184 106 1979 15 
Q 1775 -75 1538 -75 
Q 1016 -75 625 383 
Q 234 841 234 1694 
Q 234 2416 587 2905 
Q 941 3394 1538 3394 
Q 1788 3394 1991 3295 
Q 2194 3197 2353 2997 
L 2353 4581 
z
M 2913 1647 
Q 2913 897 3119 639 
Q 3325 381 3634 381 
Q 3978 381 4220 698 
Q 4463 1016 4463 1684 
Q 4463 2316 4239 2625 
Q 4016 2934 3666 2934 
Q 3291 2934 3102 2612 
Q 2913 2291 2913 1647 
z
M 806 1709 
Q 806 1006 1042 697 
Q 1278 388 1628 388 
Q 1994 388 2175 695 
Q 2356 1003 2356 1619 
Q 2356 2275 2165 2603 
Q 1975 2931 1591 2931 
Q 1244 2931 1025 2611 
Q 806 2291 806 1709 
z
" transform="scale(0.015625)"/>
       <path id="ArialMT-446" d="M 431 3319 
L 994 3319 
L 994 463 
L 2550 463 
L 2550 3319 
L 3113 3319 
L 3113 463 
L 3475 463 
L 3475 -941 
L 3013 -941 
L 3013 0 
L 431 0 
L 431 3319 
z
" transform="scale(0.015625)"/>
       <path id="ArialMT-436" d="M 2428 3319 
L 2428 1884 
Q 2697 1884 2806 1987 
Q 2916 2091 3125 2588 
Q 3322 3059 3478 3191 
Q 3631 3319 3966 3319 
L 4172 3319 
L 4172 2853 
L 4019 2856 
Q 3794 2856 3731 2791 
Q 3666 2722 3531 2381 
Q 3406 2056 3300 1931 
Q 3194 1806 2969 1703 
Q 3334 1606 3681 1028 
L 4300 0 
L 3681 0 
L 3078 1028 
Q 2894 1341 2756 1437 
Q 2619 1534 2428 1534 
L 2428 0 
L 1853 0 
L 1853 1534 
Q 1666 1534 1528 1439 
Q 1391 1344 1206 1028 
L 603 0 
L -16 0 
L 600 1028 
Q 950 1606 1316 1703 
Q 1066 1819 966 1955 
Q 866 2091 666 2603 
Q 597 2775 519 2816 
Q 438 2856 278 2856 
Q 238 2856 113 2853 
L 113 3319 
L 191 3319 
Q 516 3319 648 3280 
Q 781 3241 886 3114 
Q 991 2988 1159 2588 
Q 1366 2097 1473 1990 
Q 1581 1884 1853 1884 
L 1853 3319 
L 2428 3319 
z
" transform="scale(0.015625)"/>
       <path id="ArialMT-441" d="M 2588 1216 
L 3141 1144 
Q 3050 572 2676 248 
Q 2303 -75 1759 -75 
Q 1078 -75 664 370 
Q 250 816 250 1647 
Q 250 2184 428 2587 
Q 606 2991 970 3192 
Q 1334 3394 1763 3394 
Q 2303 3394 2647 3120 
Q 2991 2847 3088 2344 
L 2541 2259 
Q 2463 2594 2264 2762 
Q 2066 2931 1784 2931 
Q 1359 2931 1093 2626 
Q 828 2322 828 1663 
Q 828 994 1084 691 
Q 1341 388 1753 388 
Q 2084 388 2306 591 
Q 2528 794 2588 1216 
z
" transform="scale(0.015625)"/>
      </defs>
      <use xlink:href="#ArialMT-418"/>
      <use xlink:href="#ArialMT-43d" transform="translate(71.875 0)"/>
      <use xlink:href="#ArialMT-444" transform="translate(127.099609 0)"/>
      <use xlink:href="#ArialMT-43e" transform="translate(209.375 0)"/>
      <use xlink:href="#ArialMT-440" transform="translate(264.990234 0)"/>
      <use xlink:href="#ArialMT-43c" transform="translate(320.605469 0)"/>
      <use xlink:href="#ArialMT-430" transform="translate(389.355469 0)"/>
      <use xlink:href="#ArialMT-446" transform="translate(444.970703 0)"/>
      <use xlink:href="#ArialMT-438" transform="translate(502.246094 0)"/>
      <use xlink:href="#ArialMT-458" transform="translate(558.105469 0)"/>
      <use xlink:href="#ArialMT-435" transform="translate(580.322266 0)"/>
      <use xlink:href="#ArialMT-20" transform="translate(635.9375 0)"/>
      <use xlink:href="#ArialMT-43f" transform="translate(663.720703 0)"/>
      <use xlink:href="#ArialMT-440" transform="translate(717.871094 0)"/>
      <use xlink:href="#ArialMT-438" transform="translate(773.486328 0)"/>
      <use xlink:href="#ArialMT-20" transform="translate(829.345703 0)"/>
      <use xlink:href="#ArialMT-437" transform="translate(857.128906 0)"/>
      <use xlink:href="#ArialMT-430" transform="translate(902.978516 0)"/>
      <use xlink:href="#ArialMT-434" transform="translate(958.59375 0)"/>
      <use xlink:href="#ArialMT-440" transform="translate(1016.943359 0)"/>
      <use xlink:href="#ArialMT-436" transform="translate(1072.558594 0)"/>
      <use xlink:href="#ArialMT-430" transform="translate(1139.453125 0)"/>
      <use xlink:href="#ArialMT-432" transform="translate(1195.068359 0)"/>
      <use xlink:href="#ArialMT-430" transform="translate(1247.068359 0)"/>
      <use xlink:href="#ArialMT-45a" transform="translate(1302.683594 0)"/>
      <use xlink:href="#ArialMT-443" transform="translate(1383.933594 0)"/>
      <use xlink:href="#ArialMT-20" transform="translate(1433.933594 0)"/>
      <use xlink:href="#ArialMT-43a" transform="translate(1461.716797 0)"/>
      <use xlink:href="#ArialMT-443" transform="translate(1506.591797 0)"/>
      <use xlink:href="#ArialMT-440" transform="translate(1555.466797 0)"/>
      <use xlink:href="#ArialMT-441" transform="translate(1611.082031 0)"/>
      <use xlink:href="#ArialMT-43e" transform="translate(1662.207031 0)"/>
      <use xlink:href="#ArialMT-440" transform="translate(1717.822266 0)"/>
      <use xlink:href="#ArialMT-430" transform="translate(1773.4375 0)"/>
     </g>
    </g>
    <g id="line2d_32">
     <path d="M 66.883125 93.570469 
L 77.883125 93.570469 
L 88.883125 93.570469 
" style="fill: none; stroke: #2ca02c; stroke-width: 2; stroke-linecap: round"/>
     <g>
      <use xlink:href="#m35f0e90ca4" x="77.883125" y="93.570469" style="fill: #2ca02c; stroke: #2ca02c; stroke-linejoin: miter"/>
     </g>
    </g>
    <g id="text_18">
     <!-- Прелазак на дефиницију -->
     <g style="fill: #262626" transform="translate(97.683125 97.420469) scale(0.11 -0.11)">
      <defs>
       <path id="ArialMT-41f" d="M 500 4581 
L 4103 4581 
L 4103 0 
L 3494 0 
L 3494 4041 
L 1106 4041 
L 1106 0 
L 500 0 
L 500 4581 
z
" transform="scale(0.015625)"/>
      </defs>
      <use xlink:href="#ArialMT-41f"/>
      <use xlink:href="#ArialMT-440" transform="translate(71.875 0)"/>
      <use xlink:href="#ArialMT-435" transform="translate(127.490234 0)"/>
      <use xlink:href="#ArialMT-43b" transform="translate(179.730469 0)"/>
      <use xlink:href="#ArialMT-430" transform="translate(238.080078 0)"/>
      <use xlink:href="#ArialMT-437" transform="translate(292.570312 0)"/>
      <use xlink:href="#ArialMT-430" transform="translate(338.419922 0)"/>
      <use xlink:href="#ArialMT-43a" transform="translate(394.035156 0)"/>
      <use xlink:href="#ArialMT-20" transform="translate(437.785156 0)"/>
      <use xlink:href="#ArialMT-43d" transform="translate(465.568359 0)"/>
      <use xlink:href="#ArialMT-430" transform="translate(520.792969 0)"/>
      <use xlink:href="#ArialMT-20" transform="translate(576.408203 0)"/>
      <use xlink:href="#ArialMT-434" transform="translate(604.191406 0)"/>
      <use xlink:href="#ArialMT-435" transform="translate(662.541016 0)"/>
      <use xlink:href="#ArialMT-444" transform="translate(718.15625 0)"/>
      <use xlink:href="#ArialMT-438" transform="translate(800.431641 0)"/>
      <use xlink:href="#ArialMT-43d" transform="translate(856.291016 0)"/>
      <use xlink:href="#ArialMT-438" transform="translate(911.515625 0)"/>
      <use xlink:href="#ArialMT-446" transform="translate(967.375 0)"/>
      <use xlink:href="#ArialMT-438" transform="translate(1024.650391 0)"/>
      <use xlink:href="#ArialMT-458" transform="translate(1080.509766 0)"/>
      <use xlink:href="#ArialMT-443" transform="translate(1102.726562 0)"/>
     </g>
    </g>
    <g id="line2d_33">
     <path d="M 66.883125 109.259219 
L 77.883125 109.259219 
L 88.883125 109.259219 
" style="fill: none; stroke: #9467bd; stroke-width: 2; stroke-linecap: round"/>
     <g>
      <use xlink:href="#mb61b031d48" x="77.883125" y="109.259219" style="fill: #9467bd; stroke: #9467bd"/>
     </g>
    </g>
    <g id="text_19">
     <!-- Референце -->
     <g style="fill: #262626" transform="translate(97.683125 113.109219) scale(0.11 -0.11)">
      <defs>
       <path id="ArialMT-420" d="M 494 0 
L 494 4581 
L 2222 4581 
Q 2678 4581 2919 4538 
Q 3256 4481 3484 4323 
Q 3713 4166 3852 3881 
Q 3991 3597 3991 3256 
Q 3991 2672 3619 2267 
Q 3247 1863 2275 1863 
L 1100 1863 
L 1100 0 
L 494 0 
z
M 1100 2403 
L 2284 2403 
Q 2872 2403 3119 2622 
Q 3366 2841 3366 3238 
Q 3366 3525 3220 3729 
Q 3075 3934 2838 4000 
Q 2684 4041 2272 4041 
L 1100 4041 
L 1100 2403 
z
" transform="scale(0.015625)"/>
      </defs>
      <use xlink:href="#ArialMT-420"/>
      <use xlink:href="#ArialMT-435" transform="translate(62.324219 0)"/>
      <use xlink:href="#ArialMT-444" transform="translate(117.939453 0)"/>
      <use xlink:href="#ArialMT-435" transform="translate(200.214844 0)"/>
      <use xlink:href="#ArialMT-440" transform="translate(255.830078 0)"/>
      <use xlink:href="#ArialMT-435" transform="translate(311.445312 0)"/>
      <use xlink:href="#ArialMT-43d" transform="translate(367.060547 0)"/>
      <use xlink:href="#ArialMT-446" transform="translate(422.285156 0)"/>
      <use xlink:href="#ArialMT-435" transform="translate(478.435547 0)"/>
     </g>
    </g>
    <g id="line2d_34">
     <path d="M 66.883125 124.953125 
L 77.883125 124.953125 
L 88.883125 124.953125 
" style="fill: none; stroke-dasharray: 5.55,2.4; stroke-dashoffset: 0; stroke: #808080; stroke-opacity: 0.7; stroke-width: 1.5"/>
    </g>
    <g id="text_20">
     <!-- Граница прихватљивог одзива (1 s) -->
     <g style="fill: #262626" transform="translate(97.683125 128.803125) scale(0.11 -0.11)">
      <defs>
       <path id="ArialMT-413" d="M 503 4581 
L 3466 4581 
L 3466 4041 
L 1109 4041 
L 1109 0 
L 503 0 
L 503 4581 
z
" transform="scale(0.015625)"/>
       <path id="ArialMT-445" d="M 47 0 
L 1259 1725 
L 138 3319 
L 841 3319 
L 1350 2541 
Q 1494 2319 1581 2169 
Q 1719 2375 1834 2534 
L 2394 3319 
L 3066 3319 
L 1919 1756 
L 3153 0 
L 2463 0 
L 1781 1031 
L 1600 1309 
L 728 0 
L 47 0 
z
" transform="scale(0.015625)"/>
       <path id="ArialMT-459" d="M 3413 3319 
L 3413 2022 
L 4128 2022 
Q 4816 2022 5195 1753 
Q 5575 1484 5575 1006 
Q 5575 606 5269 303 
Q 4963 0 4256 0 
L 2850 0 
L 2850 2853 
L 1291 2853 
L 1291 1200 
Q 1291 653 1230 428 
Q 1169 203 995 92 
Q 822 -19 497 -19 
Q 406 -19 59 0 
L 59 459 
Q 281 428 406 428 
Q 603 428 665 550 
Q 728 672 728 1131 
L 728 3319 
L 3413 3319 
z
M 3413 463 
L 4003 463 
Q 4541 463 4769 592 
Q 4997 722 4997 1003 
Q 4997 1222 4830 1389 
Q 4663 1556 4081 1556 
L 3413 1556 
L 3413 463 
z
" transform="scale(0.015625)"/>
       <path id="ArialMT-433" d="M 425 3319 
L 2334 3319 
L 2334 2853 
L 988 2853 
L 988 0 
L 425 0 
L 425 3319 
z
" transform="scale(0.015625)"/>
      </defs>
      <use xlink:href="#ArialMT-413"/>
      <use xlink:href="#ArialMT-440" transform="translate(48.525391 0)"/>
      <use xlink:href="#ArialMT-430" transform="translate(104.140625 0)"/>
      <use xlink:href="#ArialMT-43d" transform="translate(159.755859 0)"/>
      <use xlink:href="#ArialMT-438" transform="translate(214.980469 0)"/>
      <use xlink:href="#ArialMT-446" transform="translate(270.839844 0)"/>
      <use xlink:href="#ArialMT-430" transform="translate(328.115234 0)"/>
      <use xlink:href="#ArialMT-20" transform="translate(383.730469 0)"/>
      <use xlink:href="#ArialMT-43f" transform="translate(411.513672 0)"/>
      <use xlink:href="#ArialMT-440" transform="translate(465.664062 0)"/>
      <use xlink:href="#ArialMT-438" transform="translate(521.279297 0)"/>
      <use xlink:href="#ArialMT-445" transform="translate(577.138672 0)"/>
      <use xlink:href="#ArialMT-432" transform="translate(627.138672 0)"/>
      <use xlink:href="#ArialMT-430" transform="translate(679.138672 0)"/>
      <use xlink:href="#ArialMT-442" transform="translate(732.503906 0)"/>
      <use xlink:href="#ArialMT-459" transform="translate(778.304688 0)"/>
      <use xlink:href="#ArialMT-438" transform="translate(868.929688 0)"/>
      <use xlink:href="#ArialMT-432" transform="translate(924.789062 0)"/>
      <use xlink:href="#ArialMT-43e" transform="translate(976.789062 0)"/>
      <use xlink:href="#ArialMT-433" transform="translate(1032.404297 0)"/>
      <use xlink:href="#ArialMT-20" transform="translate(1068.878906 0)"/>
      <use xlink:href="#ArialMT-43e" transform="translate(1096.662109 0)"/>
      <use xlink:href="#ArialMT-434" transform="translate(1150.027344 0)"/>
      <use xlink:href="#ArialMT-437" transform="translate(1208.376953 0)"/>
      <use xlink:href="#ArialMT-438" transform="translate(1254.226562 0)"/>
      <use xlink:href="#ArialMT-432" transform="translate(1310.085938 0)"/>
      <use xlink:href="#ArialMT-430" transform="translate(1362.085938 0)"/>
      <use xlink:href="#ArialMT-20" transform="translate(1417.701172 0)"/>
      <use xlink:href="#ArialMT-28" transform="translate(1445.484375 0)"/>
      <use xlink:href="#ArialMT-31" transform="translate(1478.785156 0)"/>
      <use xlink:href="#ArialMT-20" transform="translate(1534.400391 0)"/>
      <use xlink:href="#ArialMT-73" transform="translate(1562.183594 0)"/>
      <use xlink:href="#ArialMT-29" transform="translate(1612.183594 0)"/>
     </g>
    </g>
   </g>
  </g>
 </g>
 <defs>
  <clipPath id="pde366b08d9">
   <rect x="56.983125" y="32.391562" width="648.36" height="350.94"/>
  </clipPath>
 </defs>
</svg>
